<?xml version="1.0" standalone="no"?>
<!DOCTYPE svg PUBLIC "-//W3C//DTD SVG 20010904//EN"
 "http://www.w3.org/TR/2001/REC-SVG-20010904/DTD/svg10.dtd">
<svg version="1.0" xmlns="http://www.w3.org/2000/svg"
 width="1983.000000pt" height="2260.000000pt" viewBox="0 0 1983.000000 2260.000000"
 preserveAspectRatio="xMidYMid meet">

<g transform="translate(0.000000,2260.000000) scale(0.100000,-0.100000)"
fill="#000000" stroke="none">
<path d="M5190 17115 c0 -3 21 -68 46 -143 117 -351 280 -695 481 -1013 40
-64 73 -120 73 -124 0 -13 167 -243 265 -365 163 -202 418 -464 644 -658 724
-625 1634 -1053 2694 -1267 191 -39 507 -88 515 -80 3 3 -2 5 -12 5 -31 0
-424 135 -621 212 -723 286 -1419 679 -1935 1093 -132 106 -355 309 -418 381
-265 301 -425 549 -533 824 -134 340 -236 694 -279 960 -12 74 -23 145 -26
158 l-4 22 -445 0 c-245 0 -445 -2 -445 -5z"/>
<path d="M9780 17114 c0 -3 13 -24 29 -47 l29 -42 36 -1310 c20 -721 40 -1470
46 -1665 6 -195 10 -395 11 -445 1 -180 8 -62 18 330 6 220 27 1003 47 1740
l36 1340 34 53 34 52 -160 0 c-88 0 -160 -3 -160 -6z"/>
<path d="M13786 17108 c-2 -7 -14 -78 -26 -158 -28 -181 -91 -433 -165 -654
-57 -172 -152 -421 -186 -488 l-19 -38 27 5 c16 2 43 6 60 10 74 12 150 25
193 31 19 2 49 7 65 9 80 13 241 28 282 26 59 -2 76 13 149 130 201 322 358
657 473 1008 23 69 41 126 41 128 0 2 -200 3 -445 3 -348 0 -446 -3 -449 -12z"/>
<path d="M13449 15306 c-3 -3 -43 -8 -89 -11 -106 -9 -137 -12 -175 -19 -42
-7 -107 -17 -125 -19 -9 -1 -81 -67 -160 -147 -630 -632 -1620 -1208 -2700
-1571 -129 -44 -219 -77 -200 -74 403 56 699 118 1049 220 565 163 1109 410
1566 709 325 214 548 396 835 684 201 202 213 217 190 223 -28 8 -184 11 -191
5z"/>
<path d="M9615 9498 c19 -62 41 -132 49 -154 l14 -42 -78 -103 c-434 -577
-896 -980 -1426 -1243 -288 -143 -542 -233 -1234 -436 -245 -72 -545 -163
-667 -202 -123 -39 -225 -69 -229 -66 -9 10 -52 541 -65 813 -23 495 14 977
106 1390 14 60 25 113 25 117 0 5 -261 8 -579 8 -543 0 -580 -1 -585 -17 -174
-585 -255 -1054 -286 -1653 -41 -811 65 -1703 257 -2157 31 -72 38 -82 57 -78
11 2 100 16 196 30 1070 158 1827 379 2550 746 977 494 1701 1188 2159 2070
l69 131 37 -68 c105 -193 175 -311 252 -428 547 -834 1358 -1471 2408 -1894
452 -182 997 -335 1552 -437 173 -31 724 -115 758 -115 25 0 83 148 135 345
177 663 214 1646 94 2495 -44 312 -132 708 -214 963 l-31 97 -581 0 -580 0 7
-27 c21 -83 76 -363 90 -458 48 -329 65 -739 46 -1120 -11 -222 -48 -726 -54
-731 -1 -2 -88 24 -192 57 -105 34 -386 117 -625 185 -578 166 -732 214 -939
291 -419 155 -718 322 -1041 580 -251 200 -588 559 -824 877 l-29 38 38 122
c20 66 39 129 42 139 4 16 -12 17 -232 17 -207 0 -236 2 -231 15 5 13 -13 15
-123 15 l-129 0 33 -112z"/>
<path d="M4834 2818 c10 -49 19 -884 11 -1004 l-7 -104 -381 0 c-417 0 -503 8
-639 56 -128 46 -188 83 -284 179 -105 104 -155 191 -200 345 -15 52 -28 96
-29 97 0 1 -32 -6 -70 -16 -80 -20 -78 -13 -44 -141 44 -163 154 -342 269
-439 86 -73 201 -136 317 -174 182 -60 261 -67 773 -67 l451 0 -3 633 c-2 347
-7 640 -12 650 -7 14 -22 17 -83 17 l-75 0 6 -32z"/>
<path d="M6720 2397 c0 -250 -3 -542 -7 -650 l-6 -197 434 0 c240 0 473 5 519
10 186 23 376 92 503 184 118 84 230 223 292 362 l26 59 22 -51 c47 -108 103
-190 192 -279 130 -130 264 -201 472 -252 108 -26 110 -26 596 -30 l487 -5 0
651 0 651 -80 0 -80 0 0 -571 0 -571 -412 5 c-385 3 -419 5 -497 26 -231 60
-410 193 -508 378 -85 160 -113 300 -113 561 l0 172 -79 0 -79 0 -4 -217 c-5
-193 -8 -229 -31 -315 -41 -154 -104 -266 -209 -370 -74 -75 -102 -94 -190
-137 -184 -90 -210 -94 -685 -98 l-413 -5 0 571 0 571 -75 0 -75 0 0 -453z"/>
<path d="M10623 2493 c5 -404 9 -436 79 -583 77 -161 225 -279 417 -333 73
-21 97 -21 709 -25 l632 -3 0 651 0 650 -75 0 c-70 0 -75 -1 -75 -22 l0 -21
-23 21 c-21 20 -33 22 -148 22 l-124 -1 40 -21 c59 -31 158 -135 188 -198 57
-119 60 -144 65 -547 l4 -373 -529 0 c-582 0 -608 2 -730 61 -125 59 -215 177
-259 334 -14 49 -18 123 -21 403 l-5 342 -75 0 -75 0 5 -357z"/>
<path d="M12840 2678 c0 -265 32 -433 115 -603 139 -288 386 -455 750 -510 74
-11 189 -15 437 -15 l337 0 -20 -72 c-25 -91 -93 -235 -150 -319 -145 -217
-394 -370 -699 -433 -88 -17 -277 -36 -372 -36 l-68 0 0 -76 0 -77 173 6 c403
13 702 122 933 340 209 198 317 409 381 752 12 63 16 200 20 648 l5 567 -75 0
-75 0 -5 -532 c-3 -293 -9 -550 -12 -570 l-7 -38 -362 0 c-391 0 -477 8 -613
54 -132 45 -191 83 -298 190 -83 84 -107 115 -141 186 -76 156 -104 305 -104
553 l0 157 -75 0 -75 0 0 -172z"/>
<path d="M15570 2847 c15 -14 215 -72 354 -102 213 -47 294 -70 394 -111 231
-95 346 -226 394 -447 13 -65 21 -149 25 -284 l6 -193 -530 0 c-495 0 -535 1
-607 20 -257 65 -395 260 -396 558 l0 92 -80 0 -80 0 0 -42 c1 -77 19 -232 35
-293 68 -260 260 -431 540 -480 72 -12 195 -15 683 -15 l595 0 -7 233 c-11
359 -31 487 -102 636 -29 61 -55 94 -128 166 -75 75 -108 100 -191 142 -55 28
-143 66 -195 84 l-95 34 -310 3 c-170 2 -307 1 -305 -1z"/>
</g>
</svg>
